<svg width="147" height="147" viewBox="0 0 147 147" fill="none" xmlns="http://www.w3.org/2000/svg">
<path d="M98.0793 0C105.765 0 107.173 7.57942 109.212 13.3482L144.987 114.54C146.169 117.319 146.799 120.196 146.829 123.035C146.953 135.018 137.461 146.327 124.497 146.811L124.485 146.83H23.214C10.5896 146.83 0.318342 136.752 0.00680099 124.203L0 124.196V9.28569C0 4.15734 4.15731 0 9.28561 0C17.1245 0 19.9955 10.1555 22.2869 15.9598C34.0045 45.6406 55.9409 116.328 81.5393 116.328C110.557 116.328 88.7937 25.0051 88.7937 9.28569C88.7937 4.15734 92.951 0 98.0793 0Z" fill="#FFFFFF"/>
</svg>